<svg version="1.1" xmlns="http://www.w3.org/2000/svg" xmlns:xlink="http://www.w3.org/1999/xlink" xmlns:a="http://ns.adobe.com/AdobeSVGViewerExtensions/3.0/" x="0px" y="0px" width="5121px" height="1177px" viewBox="-0.667 -0.333 5121 1177" enable-background="new -0.667 -0.333 5121 1177" xml:space="preserve">
<defs>
</defs>
<path fill-rule="evenodd" clip-rule="evenodd" fill="#FA0029" d="M0,0c1.667,0,3.333,0,5,0
	c594.811,206.296,1190.248,411.705,1784,619c-0.221,0.779-0.837,1.163-2,1C1191.637,672.637,595.432,724.444,0,777
	C0,518.003,0,258.997,0,0z"></path>
<path fill-rule="evenodd" clip-rule="evenodd" fill="#FF5959" d="M4900,1177.667c72.666-2.333,149.667-0.333,224-1
	c0,0.333,0,0.667,0,1C5049.334,1177.667,4974.666,1177.667,4900,1177.667z"></path>
<path fill-rule="evenodd" clip-rule="evenodd" fill="#FF9E16" d="M1790,619C2900.424,439.122,4009.734,257.955,5120,78
	c0,0.333,0,0.667,0,1C4015.109,257.924,2912.355,438.497,1807,617c1102.83-99.307,2208.086-204.407,3313-305
	c0,195.333,0,390.669,0,586c-1105.307-92.086-2209.867-184.754-3315-277c-4.168,1.063-4.411,0.259-9,0c-0.805-0.529-1.624-1.043-3-1
	c-0.667,0-1.333,0-2,0C1790.149,620.184,1790.057,619.61,1790,619z"></path>
<path fill-rule="evenodd" clip-rule="evenodd" fill="#FF5959" d="M0,777c595.432-52.556,1191.637-104.363,1787-157
	c0,0.333,0,0.667,0,1c-3.247-0.58-4.652,0.681-7,1C1186.306,735.3,594.123,850.148,0,963C0,901,0,839,0,777z"></path>
<path fill-rule="evenodd" clip-rule="evenodd" fill="#FFD700" d="M5120,312C4015.086,412.593,2909.83,517.693,1807,617
	C2912.355,438.497,4015.109,257.924,5120,79C5120,156.666,5120,234.334,5120,312z"></path>
<path fill-rule="evenodd" clip-rule="evenodd" fill="#7DCAEC" d="M1796,621c4.589,0.259,4.832,1.063,9,0
	c72.312,15.178,147.354,26.822,220,41c2.484,1.516,6.069,1.931,10,2c209.457,37.336,362.414,65.714,545,99
	c2.482,1.516,6.068,1.931,10,2c209.457,37.336,362.414,65.714,545,99c2.482,1.516,6.068,1.931,10,2
	c206.166,36.132,365.926,67.081,544,99c126.836,22.734,227.799,39.881,333,60c130.766,25.008,289.221,52.944,439,80
	c124.018,22.402,239.611,43.825,372,68c20.627,3.767,44.24,6.344,60,12c-726.951,0-1454.07,0-2181,0
	c240.666-2.333,485.668-0.333,728-1C2892.744,995.561,2343.574,809.162,1796,621z"></path>
<path fill-rule="evenodd" clip-rule="evenodd" fill="#00AC41" d="M0,963c594.123-112.852,1186.306-227.7,1780-341
	C1188.071,795.036,593.768,965.814,0,1137C0,1079,0,1021,0,963z"></path>
<path fill-rule="evenodd" clip-rule="evenodd" fill="#FF5959" d="M3135,864c3.93,0.069,7.516,0.484,10,2
	C3141.068,865.931,3137.482,865.516,3135,864z"></path>
<path fill-rule="evenodd" clip-rule="evenodd" fill="#FF5959" d="M2580,763c3.93,0.069,7.516,0.484,10,2
	C2586.068,764.931,2582.482,764.516,2580,763z"></path>
<path fill-rule="evenodd" clip-rule="evenodd" fill="#FF5959" d="M2025,662c3.931,0.069,7.516,0.484,10,2
	C2031.069,663.931,2027.484,663.516,2025,662z"></path>
<path fill-rule="evenodd" clip-rule="evenodd" fill="#2F7DE1" d="M1564,1183c74.912-188.422,151.198-375.467,227-563
	c0.667,0,1.333,0,2,0c303.257,189.425,614.721,375.925,916,564C2327.658,1183.333,1943.687,1185.333,1564,1183z"></path>
<path fill-rule="evenodd" clip-rule="evenodd" fill="#FF5000" d="M4893,1185c-15.76-5.656-39.373-8.233-60-12
	c-132.389-24.175-247.982-45.598-372-68c-149.779-27.056-308.234-54.992-439-80c-105.201-20.119-206.164-37.266-333-60
	c-178.074-31.919-337.834-62.868-544-99c-2.484-1.516-6.07-1.931-10-2c-182.586-33.286-335.543-61.664-545-99
	c-2.484-1.516-6.07-1.931-10-2c-182.586-33.286-335.543-61.664-545-99c-2.484-1.516-6.069-1.931-10-2
	c-72.646-14.178-147.688-25.822-220-41c1105.133,92.246,2209.693,184.914,3315,277c0,95.334,0,190.666,0,286
	c-74.334,0.667-151.334-1.333-224,1C4895,1185,4894,1185,4893,1185z"></path>
<path fill-rule="evenodd" clip-rule="evenodd" fill="#2BACE4" d="M1793,620c1.376-0.043,2.195,0.471,3,1
	c547.574,188.162,1096.744,374.561,1644,563c-242.332,0.667-487.334-1.333-728,1c-383.012,0-765.983,0-1149,0
	c-0.163-1.163,0.221-1.779,1-2c379.687,2.333,763.658,0.333,1145,1C2407.721,995.925,2096.257,809.425,1793,620z"></path>
<path fill-rule="evenodd" clip-rule="evenodd" fill="#E2E71F" d="M1791,620c-75.802,187.533-152.088,374.578-227,563
	c-0.779,0.221-1.163,0.837-1,2c-345.005,0-689.991,0-1035,0c41-2.333,86.333-0.333,129-1c377.297-187.063,753.649-374.954,1130-563
	c0-0.333,0-0.667,0-1c1.163,0.163,1.779-0.221,2-1c0.333,0,0.667,0,1,0C1790.057,619.61,1790.149,620.184,1791,620z"></path>
<path fill-rule="evenodd" clip-rule="evenodd" fill="#95D600" d="M1780,622c2.348-0.319,3.753-1.58,7-1
	c-376.351,188.046-752.703,375.937-1130,563c-42.667,0.667-88-1.333-129,1c-176,0-352,0-528,0c0-16,0-32,0-48
	C593.768,965.814,1188.071,795.036,1780,622z"></path>
</svg>
